<?xml version="1.0" encoding="utf-8"?>
<!-- Generator: Adobe Illustrator 25.2.2, SVG Export Plug-In . SVG Version: 6.00 Build 0)  -->
<svg version="1.1" id="Layer_1" xmlns="http://www.w3.org/2000/svg" xmlns:xlink="http://www.w3.org/1999/xlink" x="0px" y="0px"
	 viewBox="0 0 1185.4 264.9" style="enable-background:new 0 0 1185.4 264.9;" xml:space="preserve">
<style type="text/css">
	.st0{display:none;}
	.st1{display:inline;fill:#0C3548;}
	.st2{fill:#0C3548;}
	.st3{fill:#2AB1F3;}
	.st4{fill:none;}
	.st5{enable-background:new    ;}
</style>
<g class="st0">
	<path class="st1" d="M399.7,119.2v26.4h-63.9v16.1c0.1,2.7,2.2,4.8,4.9,4.9h59v10.3h-59c-8.4,0-15.2-6.8-15.2-15.2l0,0v-42.5
		c0-8.4,6.8-15.2,15.2-15.2l0,0h43.7C392.8,103.9,399.6,110.7,399.7,119.2C399.7,119.1,399.7,119.1,399.7,119.2z M389.2,135.3v-16.1
		c0-2.7-2.2-4.9-4.9-4.9h-43.7c-2.7,0.1-4.8,2.2-4.9,4.9v16.1H389.2z"/>
	<path class="st1" d="M420.2,80.2v81.5c0.1,2.7,2.2,4.8,4.9,4.9h12.3v10.3h-12.3c-8.4,0-15.2-6.8-15.2-15.2l0,0V80.2H420.2z"/>
	<path class="st1" d="M520,119.2v26.4h-63.9v16.1c0.1,2.7,2.2,4.8,4.9,4.9h59v10.3h-59c-8.4,0-15.2-6.8-15.2-15.2l0,0v-42.5
		c0-8.4,6.8-15.2,15.2-15.2l0,0h43.7C513.1,103.9,520,110.7,520,119.2C520,119.1,520,119.1,520,119.2z M509.7,135.3v-16.1
		c0-2.7-2.2-4.9-4.9-4.9h-43.7c-2.7,0.1-4.8,2.2-4.9,4.9v16.1H509.7z"/>
	<path class="st1" d="M604.4,166.6v10.3h-59c-8.4,0-15.2-6.8-15.2-15.2l0,0v-42.5c0-8.4,6.8-15.2,15.2-15.2l0,0h58.8v10.3h-58.8
		c-2.7,0.1-4.8,2.2-4.9,4.9v42.5c0.1,2.7,2.2,4.8,4.9,4.9H604.4z"/>
	<path class="st1" d="M624.9,114.3v47.3c0.1,2.7,2.2,4.8,4.9,4.9h26.6v10.3h-26.6c-8.4,0-15.1-6.8-15.2-15.1v-0.1V80.1H625V104h31.5
		v10.3H624.9z"/>
	<path class="st1" d="M722.1,104v10.3h-40.9c-2.7,0.1-4.8,2.2-4.9,4.9v57.6H666v-57.6c0-8.4,6.8-15.2,15.2-15.2l0,0
		C681.2,104,722.1,104,722.1,104z"/>
	<path class="st1" d="M788.4,104c8.4,0,15.3,6.7,15.3,15.1c0,0,0,0,0,0.1v42.5c0,8.4-6.8,15.2-15.2,15.2c0,0,0,0-0.1,0h-43.7
		c-8.4,0-15.2-6.8-15.2-15.2l0,0v-42.5c0-8.4,6.8-15.2,15.2-15.2l0,0H788.4z M744.7,114.3c-2.7,0.1-4.8,2.2-4.9,4.9v42.5
		c0.1,2.7,2.2,4.8,4.9,4.9h43.7c2.7,0,4.9-2.2,4.9-4.9v-42.5c0-2.7-2.2-4.9-4.9-4.9L744.7,114.3z"/>
	<path class="st1" d="M889.1,119.2v57.6h-10.3v-57.6c-0.1-2.7-2.2-4.8-4.9-4.9h-43.7c-2.7,0-4.9,2.2-5,4.9v57.6h-10.3V104h59
		C882.3,104,889.1,110.7,889.1,119.2C889.1,119.1,889.1,119.1,889.1,119.2z"/>
	<path class="st1" d="M976.2,119.2v26.4h-63.9v16.1c0.1,2.7,2.2,4.8,4.9,4.9h59v10.3h-59c-8.4,0-15.2-6.8-15.2-15.2l0,0v-42.5
		c0-8.4,6.8-15.2,15.2-15.2l0,0h43.7C969.3,103.9,976.2,110.7,976.2,119.2C976.2,119.1,976.2,119.1,976.2,119.2z M965.8,135.3v-16.1
		c0-2.7-2.2-4.9-4.9-4.9h-43.7c-2.7,0.1-4.8,2.2-4.9,4.9v16.1H965.8z"/>
	<path class="st1" d="M1063.3,104v57.6c0,8.4-6.8,15.2-15.2,15.2c0,0,0,0-0.1,0h-43.7c-8.4,0-15.2-6.8-15.2-15.2l0,0V104h10.3v57.6
		c0.1,2.7,2.2,4.8,4.9,4.9h43.7c2.7,0,4.9-2.2,5-4.9V104H1063.3z"/>
	<path class="st1" d="M1185.4,119.2v57.6h-10.2v-57.6c-0.1-2.7-2.3-4.9-5-4.9h-30.3c-2.7,0-4.9,2.2-4.9,4.9v57.6h-10.3v-57.6
		c-0.1-2.7-2.2-4.8-4.9-4.9h-30.4c-2.7,0.1-4.8,2.2-4.9,4.9v57.6h-10.4V104h96.2c8.3,0,15.1,6.7,15.2,15
		C1185.4,119,1185.4,119.1,1185.4,119.2z"/>
</g>
<path class="st2" d="M175.9,100.3l21.6,16.4l13.7,10.3l-15.2,7.8l-30.7,15.7l10.5,7.3l14.7,10.2l-15.9,8.2l-97.5,50.3
	c53.1,29.2,119.9,9.9,149.1-43.3C248,143.6,243.3,94.7,214.3,60L175.9,100.3z"/>
<path class="st2" d="M84.1,165.8l-21.6-16.4l-13.7-10.3l15.2-7.8l30.7-15.7l-10.5-7.3L69.5,98.1l15.9-8.2l102.7-53
	C136.7,4.8,68.9,20.5,36.9,71.9C11,113.4,15.7,167,48.3,203.4L84.1,165.8z"/>
<path class="st2" d="M41.7,210.6C-2.8,161.8,0.8,86.2,49.5,41.8C90.7,4.3,152.3,0.2,198.1,32l10.7-5.5C151.5-17,69.9-5.8,26.4,51.5
	c-38.1,50.2-34.7,120.5,8,166.9L41.7,210.6z"/>
<path class="st2" d="M221,52.8c42.8,50.2,36.8,125.6-13.4,168.4c-39.6,33.7-96.5,38-140.7,10.4L56,237.2
	c59.1,40.9,140.1,26.2,181.1-32.9c33.8-48.8,30.3-114.4-8.7-159.3L221,52.8z"/>
<polygon class="st3" points="68.9,140.9 100.1,164.5 29.6,238.8 169.7,166.5 144.4,149.1 191.1,125.2 159.8,101.6 230.3,27.4 
	90.3,99.6 115.6,117.1 "/>
<rect x="318.9" y="91.3" class="st4" width="903.1" height="104.2"/>
<g class="st5">
	<path class="st2" d="M325.4,177.6V96.9H399v9.1h-64.5v26.7h51.9v9.2h-51.9v26.7H399v9.1H325.4z"/>
	<path class="st2" d="M442.8,177.6V106h-35.8v-9.1h80.6v9.1h-35.7v71.6H442.8z"/>
	<path class="st2" d="M496,177.6V96.9h12.4l59.1,70.3V96.9h9.1v80.6h-12.4L505,107.2v70.3H496z"/>
	<path class="st2" d="M589.5,149v-9.2h43.7v9.2H589.5z"/>
	<path class="st2" d="M647.1,177.6V96.9h12.4l59.1,70.3V96.9h9.1v80.6h-12.4l-59.1-70.3v70.3H647.1z"/>
	<path class="st2" d="M753.2,177.6c-3.7,0-6.9-1.3-9.6-4c-2.7-2.7-4-5.8-4-9.6v-37.9c0-3.7,1.3-6.9,4-9.6c2.6-2.6,5.8-4,9.6-4h39
		c3.8,0,7,1.3,9.7,4c2.6,2.7,4,5.8,4,9.6v23.5h-57V164c0,1.2,0.4,2.2,1.3,3.1c0.9,0.9,1.9,1.3,3.1,1.3h52.6v9.2H753.2z M748.9,140.5
		h47.7v-14.3c0-1.2-0.4-2.2-1.3-3.1c-0.9-0.9-1.9-1.3-3.1-1.3h-39c-1.2,0-2.2,0.4-3.1,1.3c-0.9,0.9-1.3,1.9-1.3,3.1V140.5z"/>
	<path class="st2" d="M831,177.6c-3.8,0-7-1.3-9.6-4c-2.6-2.7-3.9-5.8-3.9-9.6V91.3h9.2v21.3h28.1v9.2h-28.1V164
		c0,1.2,0.4,2.2,1.3,3.1c0.9,0.9,1.9,1.3,3.1,1.3h23.7v9.2H831z"/>
	<path class="st2" d="M886.8,177.6l-25.5-65h9.9l19.7,48.4l20.9-48.4h12.1l22.3,48.3l18.4-48.3h10l-24.5,65h-8l-24.2-53.6l-23,53.6
		H886.8z"/>
	<path class="st2" d="M994.4,177.6c-3.7,0-6.9-1.3-9.6-4c-2.7-2.7-4-5.8-4-9.6v-37.9c0-3.7,1.3-6.9,4-9.6c2.6-2.6,5.8-4,9.6-4h39
		c3.8,0,7,1.3,9.7,4c2.6,2.7,4,5.8,4,9.6V164c0,3.7-1.3,6.9-4,9.6c-2.7,2.7-5.9,4-9.7,4H994.4z M994.4,168.4h39
		c1.2,0,2.2-0.4,3.1-1.3c0.9-0.9,1.3-1.9,1.3-3.1v-37.9c0-1.2-0.4-2.2-1.3-3.1c-0.9-0.9-1.9-1.3-3.1-1.3h-39c-1.2,0-2.2,0.4-3.1,1.3
		c-0.9,0.9-1.3,1.9-1.3,3.1V164c0,1.2,0.4,2.2,1.3,3.1C992.1,168,993.2,168.4,994.4,168.4z"/>
	<path class="st2" d="M1057.3,177.6v-51.4c0-3.7,1.3-6.9,4-9.6c2.6-2.6,5.8-4,9.6-4h36.5v9.2h-36.5c-1.2,0-2.2,0.4-3.1,1.3
		c-0.9,0.9-1.3,1.9-1.3,3.1v51.4H1057.3z"/>
	<path class="st2" d="M1114.9,177.6V91.3h9.2v49.2h17.9l25.5-27.9h12.1v0.1l-29.5,32.4l29.3,32.4v0.1h-12l-25.5-27.9h-17.9v27.9
		H1114.9z"/>
</g>
</svg>
